<svg width="84" height="85" viewBox="0 0 84 85" fill="none" xmlns="http://www.w3.org/2000/svg">
<path d="M30.8025 6.7463C43.522 7.40867 53.3078 18.2648 52.6422 30.9705C51.9765 43.6763 41.1096 53.4569 28.39 52.7945C15.6706 52.132 5.88468 41.276 6.55035 28.5703C7.21612 15.8646 18.0831 6.08407 30.8025 6.7463Z" fill="#F4F4F4" stroke="#4392ED" stroke-width="2.01"/>
<path d="M30.8554 5.74281C44.1284 6.434 54.341 17.762 53.6462 31.023C52.9515 44.2839 41.6107 54.4896 28.3377 53.7984C15.0646 53.1072 4.85206 41.7791 5.54682 28.5182C6.24158 15.2573 17.5823 5.05161 30.8554 5.74281Z" stroke="#4392ED" stroke-width="10.05"/>
<path d="M43.8633 45.5909L58.1254 61.4131" stroke="#4392ED" stroke-width="10.05"/>
<path d="M58.565 53.5935C59.9417 52.3674 62.0524 52.4779 63.2948 53.8418L78.3156 70.3376C79.5745 71.7218 79.4621 73.8655 78.0636 75.1113L69.8968 82.377L69.8968 82.378C68.5194 83.6047 66.4086 83.4948 65.1669 82.1317L50.1462 65.6339C48.8872 64.2498 48.9998 62.1061 50.3982 60.8603L58.565 53.5935Z" fill="#144DA2" stroke="#4392ED" stroke-width="2.01"/>
</svg>
