<svg width="231" height="67" viewBox="0 0 231 67" fill="none" xmlns="http://www.w3.org/2000/svg">
<path d="M9.08008 1.39972H221.109C225.537 1.39972 229.127 4.98847 229.127 9.40948V57.2894C229.127 61.7099 225.538 65.2962 221.109 65.2962H9.08008C4.65186 65.2962 1.06268 61.7099 1.0625 57.2894V9.40948C1.0625 4.98847 4.65204 1.39972 9.08008 1.39972Z" fill="#E6F3FD" stroke="#BCD4F9" stroke-width="1.94"/>
<path d="M19.0845 17.5599H46.5161C48.3129 17.5602 49.7661 19.0138 49.7661 20.806V48.2064C49.7661 49.9986 48.3129 51.4523 46.5161 51.4525H19.0845C17.2875 51.4525 15.8335 49.9988 15.8335 48.2064V20.806C15.8335 19.0137 17.2875 17.5599 19.0845 17.5599Z" fill="#BCD4F9" stroke="#709CCE" stroke-width="1.94"/>
<path d="M65.7134 40.2753H187.727C190.803 40.2753 193.294 42.7662 193.294 45.8359C193.294 48.9053 190.803 51.3954 187.727 51.3954H65.7134C62.6378 51.3954 60.1462 48.9053 60.146 45.8359C60.146 42.7663 62.6377 40.2754 65.7134 40.2753Z" fill="#BCD4F9" stroke="#709CCE" stroke-width="1.94"/>
<path d="M65.7134 17.5599H165.258C168.334 17.5599 170.826 20.0508 170.826 23.1205C170.825 26.1895 168.334 28.6781 165.258 28.6781H65.7134C62.6374 28.6781 60.1462 26.1895 60.146 23.1205C60.146 20.0509 62.6377 17.56 65.7134 17.5599Z" fill="#BCD4F9" stroke="#709CCE" stroke-width="1.94"/>
</svg>
